<svg xmlns="http://www.w3.org/2000/svg" viewBox="0 0 32 32" fill="none">
  <rect width="32" height="32" rx="6" fill="#1a1f36"/>
  <circle cx="16" cy="13" r="8" stroke="#10b981" stroke-width="1.5" fill="none"/>
  <ellipse cx="16" cy="13" rx="3.5" ry="8" stroke="#10b981" stroke-width="1" fill="none"/>
  <line x1="8" y1="13" x2="24" y2="13" stroke="#10b981" stroke-width="1"/>
  <path d="M8 25c0-1 .7-2 1.7-2.3l3-1 2.5-3.5c.6-1 1.5-1.5 2.8-1.5h0c1.3 0 2.2.5 2.8 1.5l2.5 3.5 3 1c1 .3 1.7 1.3 1.7 2.3v1.5c0 .5-.5 1-1 1H9c-.5 0-1-.5-1-1V25z" fill="#10b981"/>
  <circle cx="12" cy="27.5" r="1.5" fill="#f59e0b"/>
  <circle cx="20" cy="27.5" r="1.5" fill="#f59e0b"/>
</svg>
