<svg xmlns="http://www.w3.org/2000/svg" viewBox="0 0 200 50" fill="none">
  <!-- Globe -->
  <circle cx="25" cy="25" r="18" stroke="#10b981" stroke-width="2" fill="none"/>
  <ellipse cx="25" cy="25" rx="8" ry="18" stroke="#10b981" stroke-width="1.5" fill="none"/>
  <line x1="7" y1="25" x2="43" y2="25" stroke="#10b981" stroke-width="1.5"/>
  <path d="M10 16h30M10 34h30" stroke="#10b981" stroke-width="1" opacity="0.6"/>
  <!-- Car silhouette -->
  <path d="M55 32c0-1.5 1-3 2.5-3.5l5-2 4-6c1-1.5 2.5-2.5 4.5-2.5h14c2 0 3.5 1 4.5 2.5l4 6 5 2c1.5.5 2.5 2 2.5 3.5v4c0 1-1 2-2 2h-3c0-2.5-2-4.5-4.5-4.5s-4.5 2-4.5 4.5H72c0-2.5-2-4.5-4.5-4.5S63 35.5 63 38h-6c-1 0-2-1-2-2v-4z" fill="#1a1f36"/>
  <circle cx="67.5" cy="38" r="3" fill="#10b981"/>
  <circle cx="87.5" cy="38" r="3" fill="#10b981"/>
  <!-- Text -->
  <text x="105" y="22" font-family="Inter, sans-serif" font-size="11" font-weight="700" fill="#1a1f36">Car Import</text>
  <text x="105" y="37" font-family="Inter, sans-serif" font-size="9" font-weight="400" fill="#10b981">Calculator</text>
</svg>
